<svg width="44" height="42" viewBox="0 0 44 42" fill="none" xmlns="http://www.w3.org/2000/svg">
<path d="M33.4425 0H10.2375C4.58348 0 0 4.4072 0 9.84375V32.1562C0 37.5928 4.58348 42 10.2375 42H33.4425C39.0965 42 43.68 37.5928 43.68 32.1562V9.84375C43.68 4.4072 39.0965 0 33.4425 0Z" fill="white"/>
<path d="M7.10423 33.3091H12.5332V20.6315L4.77759 15.0386V31.0719C4.77759 32.3098 5.82079 33.3091 7.10423 33.3091Z" fill="#1A1A1A"/>
<path d="M31.1467 33.3091H36.5758C37.8632 33.3091 38.9025 32.3062 38.9025 31.0719V15.0386L31.1467 20.6315" fill="#222222"/>
<path d="M4.77759 12.0561V15.0389L12.5332 20.632V10.9375L10.3616 9.37138C8.05819 7.71206 4.77759 9.28935 4.77759 12.0561Z" fill="#222222"/>
<path d="M31.1467 10.937V20.6317L38.9025 15.0388V12.0555C38.9025 9.28887 35.618 7.71157 33.3184 9.3709" fill="#1A1A1A"/>
<path d="M12.5334 20.6316V10.9372L21.8402 17.6488L31.1469 10.937V20.6316L21.8402 27.3434" fill="#1E1E1E"/>
<path d="M4.77759 12.0561V15.0389L12.5332 20.632V10.9375L10.3616 9.37138C8.05819 7.71206 4.77759 9.28935 4.77759 12.0561Z" fill="#222222"/>
</svg>
