<svg width="44" height="44" viewBox="0 0 44 44" fill="none" xmlns="http://www.w3.org/2000/svg">
<path fill-rule="evenodd" clip-rule="evenodd" d="M22 0C9.85016 0 0 9.85016 0 22C0 34.1498 9.85016 44 22 44C34.1498 44 44 34.1498 44 22C44 9.85016 34.1498 0 22 0ZM32.1973 14.9617C31.8665 18.4405 30.4339 26.8821 29.7052 30.7785C29.3966 32.4277 28.7891 32.9802 28.2013 33.0344C26.9242 33.1521 25.954 32.1896 24.7165 31.3784C22.7803 30.1091 21.6863 29.3193 19.8069 28.0809C17.6344 26.6492 19.0429 25.8629 20.2804 24.5773C20.6044 24.2404 26.2333 19.1202 26.3424 18.6562C26.3562 18.5977 26.3691 18.3812 26.2402 18.2669C26.1112 18.1526 25.9213 18.1921 25.7847 18.223C25.5905 18.2669 22.4967 20.3113 16.5052 24.3564C15.6269 24.9597 14.832 25.2527 14.1187 25.2381C13.3332 25.2209 11.8224 24.7938 10.6992 24.4286C9.32164 23.9809 8.2268 23.7437 8.32219 22.9831C8.37117 22.587 8.91687 22.1822 9.95844 21.768C16.372 18.9733 20.6482 17.1316 22.788 16.2413C28.8981 13.7002 30.1675 13.2584 30.995 13.2438C32.0316 13.2255 32.2817 14.0811 32.1973 14.9617Z" fill="#1E1E1E"/>
</svg>
