<svg width="74" height="38" viewBox="0 0 74 38" fill="none" xmlns="http://www.w3.org/2000/svg">
<path d="M5.40752 32.5784C5.42542 32.4531 5.46152 31.8091 5.39892 31.3907C5.36182 31.1428 5.03042 31.0128 4.80512 30.9039C4.55622 30.7836 3.79332 30.7415 3.14012 30.8042C2.71652 30.8449 2.45562 31.1014 1.86212 31.4155C1.54672 31.5825 1.32112 31.8026 1.08632 32.0014C0.830525 32.2181 0.744124 32.559 0.644724 32.8834C0.565124 33.1429 0.509624 33.4234 0.500124 34.0168C0.494924 34.3454 0.652223 34.8086 1.19142 35.7624C1.58052 36.4507 2.38102 36.774 2.74002 36.9804C3.62762 37.4906 4.07312 37.3326 4.58502 37.3775C5.91102 37.3688 6.19852 37.2613 6.47802 37.1441C6.54152 37.0992 6.59502 37.0279 6.75822 36.8464" stroke="white" stroke-linecap="round"/>
<path d="M9.78362 30.2013C9.78362 30.4514 9.80142 30.9209 9.82842 31.5371C9.85232 32.0815 9.83762 33.0981 9.84652 33.6484C9.85832 34.3798 9.96292 34.6303 10.0445 34.8645C10.1516 35.1719 10.1077 35.5476 10.1704 35.8818C10.1974 35.9631 10.233 36.0522 10.2514 36.1427C10.2698 36.2332 10.2698 36.3223 10.3238 36.4682" stroke="white" stroke-linecap="round"/>
<path d="M13.4573 33.3348C13.4751 33.5319 13.5113 34.2834 13.5561 34.8372C13.5817 35.1528 13.6193 35.512 13.682 35.7651C13.709 35.8194 13.7447 35.8729 13.763 35.945C13.7814 36.0171 13.7814 36.1062 13.8354 36.3061" stroke="white" stroke-linecap="round"/>
<path d="M13.3492 30.0933H13.4573" stroke="white" stroke-linecap="round"/>
<path d="M19.7782 32.0922C19.7782 32.0565 19.7782 31.9668 19.7604 31.832C19.7435 31.7045 19.6345 31.6065 19.4735 31.5255C18.8939 31.2337 18.3941 31.6589 18.0505 31.9201C17.7912 32.1172 17.7436 32.3612 17.7163 32.6851C17.6844 33.0649 17.5999 33.3877 17.5721 34.4561C17.5604 34.9047 17.8139 35.2959 18.138 35.5938C18.5156 35.9409 19.3936 35.8739 20.2172 35.7843C20.6229 35.7401 21.2682 35.5336 21.7131 35.2983C21.9209 35.1722 22.1002 34.9923 22.2002 34.7764C22.2093 34.7043 22.2093 34.6152 22.2093 34.5233" stroke="white" stroke-linecap="round"/>
<path d="M25.1267 30.6335C25.1267 30.7048 25.1445 30.7951 25.1715 31.5001C25.1965 32.1512 25.1807 33.3996 25.1896 34.0692C25.2348 34.9545 25.2704 35.2786 25.3066 35.6384C25.3244 35.7292 25.3601 35.8005 25.3968 35.928" stroke="white" stroke-linecap="round"/>
<path d="M25.3428 32.8486C25.4503 32.7767 25.7015 32.6335 25.9363 32.4979C26.1958 32.348 26.4039 32.1473 26.7105 31.8413C26.8936 31.6584 26.9625 31.3553 27.1162 31.1206C27.1435 31.0663 27.1613 31.0128 27.1972 30.9496C27.2332 30.8864 27.2866 30.815 27.3958 30.6335" stroke="white" stroke-linecap="round"/>
<path d="M25.9371 32.9566C25.9549 33.0641 26.0624 33.2796 26.2067 33.5049C26.3645 33.7514 26.6556 33.8566 27.1146 33.9825C27.4584 34.0768 27.7194 34.1089 27.8271 34.1627C28.1363 34.3169 28.2234 34.935 28.574 35.5925C28.6383 35.7291 28.6383 35.8005 28.6473 35.8818C28.6562 35.9631 28.674 36.0522 28.6924 36.3061" stroke="white" stroke-linecap="round"/>
<path d="M37.1743 30.7956C37.1743 30.8134 37.1743 30.8312 37.1743 31.3842C37.1743 31.9371 37.1743 33.0246 37.1832 33.6295C37.1969 34.5589 37.2996 35.0257 37.3275 35.8796C37.3337 36.0712 37.3007 36.1603 37.2737 36.1794C36.787 36.525 37.1921 34.5238 37.2459 34.4161C37.3768 34.1536 37.7848 34.0738 38.0914 33.9922C38.5621 33.867 38.9366 34.144 39.2265 34.3067C39.45 34.4321 39.5687 34.6843 39.7578 34.9544C39.9406 35.2156 39.9296 35.9939 39.8669 36.4674C39.8399 36.5217 39.8043 36.5752 39.777 36.6384C39.7497 36.7016 39.7319 36.7729 39.7135 37.0085" stroke="white" stroke-linecap="round"/>
<path d="M43.6573 35.3877C43.8178 35.4417 44.2862 35.3704 44.6733 35.2173C45.0449 35.0702 45.2057 34.8485 45.4123 34.677C45.6077 34.5149 45.6735 34.2002 45.7462 33.939C45.7632 33.8779 45.7287 33.8221 45.5412 33.7945C44.5865 33.6542 44.3607 33.8566 44.0995 33.9018C43.8309 33.9482 43.4445 34.412 43.1179 34.6938C43.0073 34.7892 42.9372 34.901 42.9102 35.1424C42.8536 35.6483 42.9545 36.0533 43.0712 36.1881C43.2972 36.4492 43.5839 36.5579 43.8724 36.6389C44.1824 36.726 44.4666 36.774 44.7727 36.7835C45.0787 36.7383 45.3856 36.7205 45.5112 36.6935C45.5833 36.6843 45.6725 36.6843 45.8724 36.6303" stroke="white" stroke-linecap="round"/>
<path d="M49.2219 33.4968C49.2219 33.7291 49.2576 34.2694 49.267 35.9126C49.2581 36.2516 49.2403 36.3051 49.2311 36.502C49.2219 36.6989 49.2219 37.0376 49.2219 37.2246" stroke="white" stroke-linecap="round"/>
<path d="M49.5461 34.5233C49.5639 34.4158 49.6358 34.2002 49.7705 33.966C49.9478 33.658 50.2646 33.4979 50.5536 33.3712C50.6135 33.345 50.6439 33.2818 50.6979 33.2632C50.7519 33.2445 50.8232 33.2624 50.8778 33.3072C50.9914 33.4006 51.0582 33.5325 51.1482 33.6222C51.2025 33.7475 51.2209 34.0349 51.203 34.3858C51.1852 34.5228 51.1495 34.5763 51.1668 34.7394" stroke="white" stroke-linecap="round"/>
<path d="M54.7325 36.036C54.947 36.036 55.3797 36.0004 55.91 35.8745C56.2254 35.7996 56.4067 35.6762 56.4967 35.5865C56.8308 35.2534 56.5515 34.5238 56.4978 34.425C56.3831 34.2141 55.9772 34.2532 55.652 34.1635C55.3905 34.0914 55.0945 34.4315 54.7606 34.7832C54.5239 35.0324 54.4807 35.4039 54.3638 35.6659C54.2452 35.9316 54.2463 36.2683 54.1836 36.5663C54.1563 36.6961 54.0842 36.8275 54.0931 36.9893C54.0971 37.0624 54.1198 37.1154 54.1647 37.1608C54.4163 37.4155 54.9108 37.4407 55.3692 37.4855C56.4246 37.4412 56.6407 37.297 56.7665 37.2162C56.8211 37.1711 56.8568 37.1176 56.8935 37.0625" stroke="white" stroke-linecap="round"/>
<path d="M59.691 23.7763C59.8926 23.6599 60.1999 23.4001 60.4477 23.1628C60.6508 22.9684 60.8761 22.8425 61.0946 22.6441C61.333 22.4275 61.5239 22.199 61.7081 21.9779C61.9075 21.7386 62.0637 21.5131 62.2222 21.2654C62.3892 21.0043 62.7318 20.4424 63.1619 19.7983C63.4491 19.368 63.5975 18.9856 63.7688 18.6674C63.9346 18.3595 64.0857 17.7069 64.4187 16.8072C64.6269 16.2448 64.7512 15.6159 64.8512 15.1944C64.9515 14.7722 64.9759 14.3844 65.047 13.9483C65.1312 13.431 65.2099 12.7734 65.2177 12.3526C65.2261 11.8911 65.423 11.4851 65.4717 10.7412C65.5058 10.2192 65.5667 9.57303 65.567 8.29683C65.5671 7.79552 65.5035 7.30255 65.3657 6.61208C65.2778 6.17217 65.228 5.67128 65.1339 5.23772C65.0453 4.82908 64.9213 4.31247 64.7505 3.61944C64.636 3.15527 64.4099 2.77616 64.3161 2.43444C64.1585 1.85956 63.795 1.38699 63.6296 1.0108C63.5968 0.936199 63.5435 0.84339 63.5062 0.832257C63.2642 0.759731 63.1483 1.37978 62.9544 1.78304C62.7691 2.16867 62.5676 2.46364 62.5487 2.70384C62.5458 2.74111 62.6294 2.71994 62.6754 2.67309C62.8845 2.46009 62.9806 2.24768 63.0483 2.0218C63.1135 1.80377 63.2324 1.60326 63.3386 1.28269C63.365 1.20327 63.3583 1.13626 63.4376 1.05868C63.5169 0.981028 63.6713 0.891882 63.8848 0.881889C64.7272 0.842314 64.9591 1.20771 65.2009 1.26615C65.3983 1.39143 65.5729 1.47779 65.6858 1.54738C65.741 1.58847 65.7921 1.64131 65.8447 1.69578" stroke="white" stroke-linecap="round"/>
</svg>
