<svg width="73" height="35" viewBox="0 0 73 35" fill="none" xmlns="http://www.w3.org/2000/svg">
<path d="M20.7183 29.5784C20.7362 29.4531 20.7723 28.8091 20.7097 28.3907C20.6726 28.1428 20.3412 28.0127 20.1159 27.9039C19.867 27.7836 19.1041 27.7415 18.4509 27.8042C18.0273 27.8448 17.7664 28.1013 17.1729 28.4155C16.8575 28.5825 16.6319 28.8026 16.3971 29.0014C16.1413 29.2181 16.0549 29.5589 15.9555 29.8834C15.8759 30.1429 15.8204 30.4233 15.8109 31.0168C15.8057 31.3454 15.963 31.8086 16.5022 32.7624C16.8913 33.4507 17.6918 33.774 18.0508 33.9804C18.9384 34.4906 19.3839 34.3326 19.8958 34.3774C21.2218 34.3688 21.5093 34.2613 21.7888 34.1441C21.8523 34.0992 21.9058 34.0279 22.069 33.8464" stroke="white" stroke-linecap="round"/>
<path d="M25.0944 27.2013C25.0944 27.4514 25.1122 27.9209 25.1392 28.5371C25.1631 29.0815 25.1484 30.0981 25.1573 30.6484C25.1691 31.3798 25.2737 31.6303 25.3553 31.8645C25.4624 32.1719 25.4185 32.5476 25.4812 32.8818C25.5082 32.9631 25.5438 33.0522 25.5622 33.1427C25.5806 33.2332 25.5806 33.3223 25.6346 33.4682" stroke="white" stroke-linecap="round"/>
<path d="M28.7681 30.3348C28.7859 30.5319 28.8221 31.2834 28.8669 31.8372C28.8925 32.1528 28.9301 32.512 28.9928 32.7651C29.0198 32.8194 29.0555 32.8729 29.0738 32.945C29.0922 33.0171 29.0922 33.1062 29.1462 33.3061" stroke="white" stroke-linecap="round"/>
<path d="M28.66 27.0933H28.7681" stroke="white" stroke-linecap="round"/>
<path d="M35.089 29.0922C35.089 29.0565 35.089 28.9668 35.0712 28.832C35.0543 28.7045 34.9453 28.6065 34.7843 28.5254C34.2047 28.2337 33.7049 28.6589 33.3613 28.9201C33.102 29.1172 33.0544 29.3612 33.0271 29.6851C32.9952 30.0649 32.9107 30.3877 32.8829 31.456C32.8712 31.9047 33.1247 32.2959 33.4488 32.5938C33.8264 32.9409 34.7044 32.8739 35.528 32.7842C35.9337 32.7401 36.579 32.5336 37.0239 32.2983C37.2317 32.1721 37.411 31.9922 37.511 31.7764C37.5201 31.7043 37.5201 31.6151 37.5201 31.5233" stroke="white" stroke-linecap="round"/>
<path d="M40.4375 27.6335C40.4375 27.7048 40.4553 27.7951 40.4823 28.5001C40.5073 29.1512 40.4915 30.3996 40.5004 31.0692C40.5456 31.9545 40.5812 32.2786 40.6174 32.6384C40.6352 32.7292 40.6709 32.8005 40.7076 32.928" stroke="white" stroke-linecap="round"/>
<path d="M40.6536 29.8486C40.7611 29.7767 41.0123 29.6335 41.2471 29.4979C41.5066 29.348 41.7147 29.1473 42.0213 28.8413C42.2044 28.6584 42.2733 28.3553 42.427 28.1206C42.4543 28.0663 42.4721 28.0128 42.508 27.9496C42.544 27.8864 42.5974 27.815 42.7066 27.6335" stroke="white" stroke-linecap="round"/>
<path d="M41.2479 29.9566C41.2657 30.0641 41.3732 30.2796 41.5175 30.5049C41.6753 30.7514 41.9664 30.8566 42.4254 30.9825C42.7692 31.0768 43.0302 31.1089 43.1379 31.1627C43.4471 31.3169 43.5342 31.935 43.8848 32.5925C43.9491 32.7291 43.9491 32.8005 43.9581 32.8818C43.967 32.9631 43.9848 33.0522 44.0032 33.3061" stroke="white" stroke-linecap="round"/>
<path d="M52.4851 27.7956C52.4851 27.8134 52.4851 27.8312 52.4851 28.3842C52.4851 28.9371 52.4851 30.0246 52.494 30.6294C52.5077 31.5589 52.6104 32.0257 52.6383 32.8796C52.6445 33.0712 52.6115 33.1603 52.5845 33.1794C52.0978 33.525 52.5029 31.5238 52.5567 31.4161C52.6876 31.1536 53.0956 31.0738 53.4022 30.9922C53.8729 30.867 54.2474 31.144 54.5373 31.3067C54.7608 31.4321 54.8795 31.6843 55.0686 31.9544C55.2514 32.2156 55.2404 32.9939 55.1777 33.4674C55.1507 33.5217 55.1151 33.5752 55.0878 33.6384C55.0605 33.7016 55.0427 33.7729 55.0243 34.0085" stroke="white" stroke-linecap="round"/>
<path d="M58.9681 32.3877C59.1286 32.4417 59.597 32.3704 59.9841 32.2173C60.3557 32.0702 60.5165 31.8485 60.7231 31.677C60.9185 31.5149 60.9843 31.2002 61.057 30.939C61.074 30.8779 61.0395 30.8221 60.852 30.7945C59.8973 30.6542 59.6715 30.8566 59.4103 30.9017C59.1417 30.9481 58.7553 31.412 58.4287 31.6938C58.3181 31.7892 58.248 31.9009 58.221 32.1424C58.1644 32.6483 58.2653 33.0533 58.382 33.1881C58.608 33.4492 58.8947 33.5579 59.1832 33.6389C59.4932 33.726 59.7774 33.774 60.0835 33.7834C60.3895 33.7383 60.6964 33.7205 60.822 33.6935C60.8941 33.6843 60.9833 33.6843 61.1832 33.6303" stroke="white" stroke-linecap="round"/>
<path d="M64.5327 30.4968C64.5327 30.7291 64.5684 31.2694 64.5778 32.9126C64.5689 33.2516 64.5511 33.305 64.5419 33.502C64.5327 33.6989 64.5327 34.0376 64.5327 34.2246" stroke="white" stroke-linecap="round"/>
<path d="M64.8569 31.5233C64.8747 31.4158 64.9466 31.2002 65.0813 30.966C65.2586 30.658 65.5754 30.4979 65.8644 30.3712C65.9243 30.345 65.9547 30.2818 66.0087 30.2632C66.0627 30.2445 66.134 30.2624 66.1886 30.3072C66.3022 30.4006 66.369 30.5325 66.459 30.6222C66.5133 30.7475 66.5317 31.0349 66.5138 31.3858C66.496 31.5228 66.4603 31.5763 66.4776 31.7394" stroke="white" stroke-linecap="round"/>
<path d="M70.0433 33.036C70.2578 33.036 70.6905 33.0004 71.2208 32.8745C71.5362 32.7996 71.7175 32.6762 71.8075 32.5865C72.1416 32.2534 71.8623 31.5238 71.8086 31.425C71.6939 31.2141 71.288 31.2532 70.9628 31.1635C70.7013 31.0914 70.4053 31.4315 70.0714 31.7832C69.8347 32.0324 69.7915 32.4039 69.6746 32.6659C69.556 32.9316 69.5571 33.2683 69.4944 33.5663C69.4671 33.6961 69.395 33.8275 69.4039 33.9893C69.4079 34.0624 69.4306 34.1154 69.4755 34.1608C69.7271 34.4155 70.2216 34.4407 70.68 34.4855C71.7354 34.4412 71.9515 34.297 72.0773 34.2162C72.1319 34.1711 72.1676 34.1176 72.2043 34.0625" stroke="white" stroke-linecap="round"/>
<path d="M12.7304 24.3054C12.895 24.1408 13.1246 23.8104 13.3026 23.517C13.4485 23.2767 13.6334 23.0968 13.7932 22.8485C13.9673 22.5776 14.0926 22.3075 14.2133 22.0462C14.344 21.7635 14.4365 21.5053 14.5255 21.2249C14.6192 20.9296 14.8048 20.2981 15.0535 19.5646C15.2196 19.0747 15.2639 18.6669 15.347 18.3153C15.4274 17.9749 15.4045 17.3054 15.4933 16.3502C15.5488 15.7531 15.5061 15.1134 15.4937 14.6804C15.4813 14.2466 15.4045 13.8658 15.3602 13.4261C15.3077 12.9046 15.2135 12.2491 15.1121 11.8405C15.0008 11.3926 15.0859 10.9495 14.9404 10.2183C14.8382 9.70528 14.7299 9.06539 14.3998 7.83261C14.2701 7.34836 14.0812 6.88863 13.7693 6.25737C13.5706 5.85518 13.3928 5.38426 13.1897 4.98982C12.9984 4.61804 12.7449 4.15112 12.4005 3.52593C12.1698 3.10719 11.8533 2.79953 11.6743 2.49372C11.3732 1.97923 10.8998 1.61684 10.6426 1.29628C10.5917 1.23271 10.5162 1.15685 10.4773 1.15575C10.2248 1.14833 10.2732 1.77726 10.1903 2.21696C10.1111 2.63742 9.99285 2.97449 10.0368 3.21138C10.0436 3.24814 10.119 3.20604 10.1512 3.14889C10.2981 2.88903 10.3359 2.65898 10.3428 2.42328C10.3494 2.1958 10.4123 1.97136 10.432 1.63421C10.4369 1.55067 10.4131 1.48768 10.4696 1.39222C10.5261 1.29668 10.6522 1.17061 10.8559 1.1057C11.6593 0.849455 11.9778 1.14238 12.2265 1.13624C12.4496 1.20616 12.6406 1.24438 12.7677 1.2824C12.8316 1.30779 12.8947 1.34561 12.9596 1.38459" stroke="white" stroke-linecap="round"/>
</svg>
