<svg width="54" height="42" viewBox="0 0 54 42" fill="none" xmlns="http://www.w3.org/2000/svg">
<path fill-rule="evenodd" clip-rule="evenodd" d="M26.9911 0C20.5812 0.0026672 14.3815 1.82339 9.50052 5.13661C4.61956 8.44982 1.37565 13.0395 0.348821 18.0849C-0.67801 23.1303 0.579186 28.3025 3.89564 32.6766C7.21209 37.0507 12.3715 40.3414 18.4514 41.9605C19.7927 42.1601 20.2979 41.4934 20.2979 40.9265C20.2979 40.3596 20.2711 38.716 20.2621 36.9191C12.7508 38.2204 11.1636 34.377 11.1636 34.377C9.9385 31.8813 8.16796 31.2252 8.16796 31.2252C5.71783 29.8918 8.35129 29.9167 8.35129 29.9167C11.0652 30.0701 12.4915 32.138 12.4915 32.138C14.8969 35.4288 18.809 34.4768 20.3471 33.9206C20.5885 32.5266 21.2905 31.5782 22.064 31.0398C16.0638 30.4979 9.75965 28.6511 9.75965 20.4009C9.72246 18.2612 10.7181 16.1921 12.5407 14.6215C12.2635 14.0795 11.3379 11.8904 12.8044 8.91691C12.8044 8.91691 15.0713 8.33933 20.2309 11.1239C24.6564 10.1588 29.3257 10.1588 33.7513 11.1239C38.9064 8.33933 41.1687 8.91691 41.1687 8.91691C42.6397 11.8833 41.7142 14.0724 41.437 14.6215C43.2653 16.1923 44.2631 18.2651 44.2225 20.408C44.2225 28.676 37.9049 30.4979 31.8958 31.0291C32.8615 31.6994 33.7245 33.0079 33.7245 35.0187C33.7245 37.8995 33.6932 40.217 33.6932 40.9265C33.6932 41.5005 34.1805 42.1708 35.5486 41.9605C41.6292 40.3412 46.7891 37.0499 50.1055 32.675C53.4219 28.3002 54.6785 23.1273 53.6505 18.0814C52.6225 13.0355 49.3769 8.4458 44.4944 5.13315C39.6118 1.8205 33.4107 0.000976596 27 0H26.9911Z" fill="#181818"/>
<path d="M12.3028 28.825C12.2328 28.9561 11.9743 28.9954 11.7643 28.9037C11.5544 28.8119 11.3982 28.6416 11.4736 28.5062C11.549 28.3708 11.8021 28.3359 12.012 28.4276C12.222 28.5193 12.3836 28.694 12.3028 28.825Z" fill="#181818"/>
<path d="M13.621 30.0161C13.5095 30.0617 13.3819 30.0744 13.2601 30.0521C13.1383 30.0298 13.0299 29.9739 12.9533 29.894C12.7433 29.7108 12.7002 29.4578 12.8618 29.3443C13.0233 29.2309 13.3141 29.2833 13.5241 29.4665C13.7341 29.6497 13.7825 29.9027 13.621 30.0161Z" fill="#181818"/>
<path d="M14.9032 31.5311C14.7039 31.6446 14.3647 31.5311 14.1763 31.3041C14.1241 31.2634 14.0827 31.2146 14.0544 31.1606C14.0261 31.1066 14.0115 31.0485 14.0115 30.9898C14.0115 30.9312 14.0261 30.8731 14.0544 30.8191C14.0827 30.7651 14.1241 30.7163 14.1763 30.6755C14.3755 30.5664 14.7147 30.6755 14.9032 30.8982C15.0916 31.1208 15.097 31.4176 14.9032 31.5311Z" fill="#181818"/>
<path d="M16.6421 32.9962C16.4644 33.1577 16.1037 33.1141 15.8075 32.8958C15.5114 32.6775 15.4414 32.3807 15.6191 32.2236C15.7968 32.0664 16.1575 32.1101 16.4644 32.324C16.7713 32.5379 16.8306 32.8391 16.6421 32.9962Z" fill="#181818"/>
<path d="M19.0811 33.8507C19.0003 34.0557 18.6342 34.1473 18.268 34.0601C17.9019 33.9729 17.6596 33.7286 17.7296 33.5192C17.7996 33.3098 18.1711 33.2138 18.5426 33.3098C18.9142 33.4058 19.1511 33.637 19.0811 33.8507Z" fill="#181818"/>
<path d="M21.741 33.9992C21.741 34.213 21.4395 34.3962 21.0518 34.4005C20.6641 34.4049 20.3464 34.2304 20.3464 34.0166C20.3464 33.8029 20.6479 33.6197 21.0356 33.6153C21.4233 33.611 21.741 33.7811 21.741 33.9992Z" fill="#181818"/>
<path d="M24.2181 33.6635C24.2666 33.8772 23.9974 34.0997 23.6097 34.152C23.222 34.2044 22.8828 34.0779 22.8343 33.8685C22.7859 33.6591 23.0658 33.4323 23.4428 33.3756C23.8197 33.3188 24.1697 33.4497 24.2181 33.6635Z" fill="#181818"/>
</svg>
