<svg width="52" height="42" viewBox="0 0 52 42" fill="none" xmlns="http://www.w3.org/2000/svg">
<path d="M25.7781 3.78238C32.6657 3.78238 33.4813 3.80699 36.19 3.90545C38.7074 3.9957 40.0668 4.3403 40.9731 4.62747C42.1713 5.00488 43.0373 5.46435 43.9335 6.19457C44.8398 6.93299 45.3936 7.6304 45.8568 8.60676C46.2092 9.34519 46.6322 10.461 46.7429 12.504C46.8638 14.7193 46.894 15.3839 46.894 20.9877C46.894 26.5997 46.8638 27.2643 46.7429 29.4714C46.6322 31.5226 46.2092 32.6302 45.8568 33.3686C45.3936 34.345 44.8297 35.0506 43.9335 35.7808C43.0273 36.5192 42.1713 36.9705 40.9731 37.3479C40.0668 37.6351 38.6973 37.9797 36.19 38.0699C33.4712 38.1684 32.6556 38.193 25.7781 38.193C18.8905 38.193 18.0749 38.1684 15.3662 38.0699C12.8488 37.9797 11.4894 37.6351 10.5831 37.3479C9.38484 36.9705 8.51885 36.511 7.62266 35.7808C6.7164 35.0424 6.16257 34.345 5.69937 33.3686C5.34694 32.6302 4.92402 31.5144 4.81325 29.4714C4.69242 27.2561 4.66221 26.5915 4.66221 20.9877C4.66221 15.3757 4.69242 14.7111 4.81325 12.504C4.92402 10.4528 5.34694 9.34519 5.69937 8.60676C6.16257 7.6304 6.72647 6.92479 7.62266 6.19457C8.52892 5.45614 9.38484 5.00488 10.5831 4.62747C11.4894 4.3403 12.8588 3.9957 15.3662 3.90545C18.0749 3.80699 18.8905 3.78238 25.7781 3.78238ZM25.7781 0C18.7797 0 17.9037 0.0246142 15.1547 0.123071C12.4158 0.221528 10.5328 0.582536 8.9015 1.09943C7.19974 1.64095 5.75979 2.35476 4.32991 3.52803C2.88997 4.6931 2.01391 5.86638 1.34932 7.24478C0.714939 8.58215 0.271878 10.1082 0.151044 12.3399C0.0302087 14.588 0 15.3018 0 21.0041C0 26.7064 0.0302087 27.4202 0.151044 29.6601C0.271878 31.8918 0.714939 33.4261 1.34932 34.7552C2.01391 36.1418 2.88997 37.3151 4.32991 38.4802C5.75979 39.6452 7.19974 40.3673 8.89143 40.9006C10.5328 41.4175 12.4057 41.7785 15.1446 41.8769C17.8936 41.9754 18.7697 42 25.768 42C32.7664 42 33.6424 41.9754 36.3914 41.8769C39.1303 41.7785 41.0133 41.4175 42.6446 40.9006C44.3363 40.3673 45.7762 39.6452 47.2061 38.4802C48.636 37.3151 49.5221 36.1418 50.1766 34.7634C50.811 33.4261 51.2541 31.9 51.3749 29.6683C51.4958 27.4284 51.526 26.7146 51.526 21.0123C51.526 15.31 51.4958 14.5962 51.3749 12.3563C51.2541 10.1246 50.811 8.59035 50.1766 7.26118C49.5423 5.86638 48.6662 4.6931 47.2263 3.52803C45.7964 2.36296 44.3564 1.64095 42.6648 1.10764C41.0234 0.59074 39.1505 0.229732 36.4116 0.131276C33.6525 0.0246142 32.7764 0 25.7781 0Z" fill="#181818"/>
<path d="M25.7781 10.2153C18.4676 10.2153 12.5366 15.0479 12.5366 21.0045C12.5366 26.9612 18.4676 31.7938 25.7781 31.7938C33.0886 31.7938 39.0196 26.9612 39.0196 21.0045C39.0196 15.0479 33.0886 10.2153 25.7781 10.2153ZM25.7781 28.0032C21.0353 28.0032 17.1888 24.869 17.1888 21.0045C17.1888 17.1401 21.0353 14.0059 25.7781 14.0059C30.5209 14.0059 34.3674 17.1401 34.3674 21.0045C34.3674 24.869 30.5209 28.0032 25.7781 28.0032Z" fill="#181818"/>
<path d="M42.6346 9.78897C42.6346 11.1838 41.245 12.3079 39.5431 12.3079C37.8312 12.3079 36.4517 11.1756 36.4517 9.78897C36.4517 8.39411 37.8413 7.27002 39.5431 7.27002C41.245 7.27002 42.6346 8.40232 42.6346 9.78897Z" fill="#181818"/>
</svg>
